HIERARCHY
ROOT Hips
{
  OFFSET -125.086 92.215 135.881
  CHANNELS 6 Xposition Yposition Zposition Zrotation Xrotation Yrotation
  JOINT LeftUpLeg
  {
    OFFSET 8.64259 1.95398 -2.38835
    CHANNELS 3 Zrotation Xrotation Yrotation
    JOINT LeftLeg
    {
      OFFSET 43.7702 0 0
      CHANNELS 3 Zrotation Xrotation Yrotation
      JOINT LeftFoot
      {
        OFFSET 40.6238 0 0
        CHANNELS 3 Zrotation Xrotation Yrotation
        JOINT LeftToeBase
        {
          OFFSET 12.7242 0 0
          CHANNELS 3 Zrotation Xrotation Yrotation
          End Site
          {
            OFFSET 0 0 0
          }
        }
      }
    }
  }
  JOINT RightUpLeg
  {
    OFFSET -8.2249 1.95398 -2.59336
    CHANNELS 3 Zrotation Xrotation Yrotation
    JOINT RightLeg
    {
      OFFSET 43.5653 0 0
      CHANNELS 3 Zrotation Xrotation Yrotation
      JOINT RightFoot
      {
        OFFSET 40.6238 0 0
        CHANNELS 3 Zrotation Xrotation Yrotation
        JOINT RightToeBase
        {
          OFFSET 12.7242 0 0
          CHANNELS 3 Zrotation Xrotation Yrotation
          End Site
          {
            OFFSET 0 0 0
          }
        }
      }
    }
  }
  JOINT Spine
  {
    OFFSET 0.165834 0.87714 6.61349
    CHANNELS 3 Zrotation Xrotation Yrotation
    JOINT Spine1
    {
      OFFSET 7.38963 1.71661e-005 0
      CHANNELS 3 Zrotation Xrotation Yrotation
      JOINT Spine2
      {
        OFFSET 11.9445 1.14441e-005 0
        CHANNELS 3 Zrotation Xrotation Yrotation
        JOINT Spine3
        {
          OFFSET 14.7254 4.19617e-005 0
          CHANNELS 3 Zrotation Xrotation Yrotation
          JOINT Spine4
          {
            OFFSET 10.9679 0 0
            CHANNELS 3 Zrotation Xrotation Yrotation
            JOINT RightShoulder
            {
              OFFSET 2.46616 -1.6653 3.69651
              CHANNELS 3 Zrotation Xrotation Yrotation
              JOINT RightArm
              {
                OFFSET 13.0012 0 0
                CHANNELS 3 Zrotation Xrotation Yrotation
                JOINT RightForeArm
                {
                  OFFSET 28.7848 1.52588e-005 0
                  CHANNELS 3 Zrotation Xrotation Yrotation
                  JOINT RightHand
                  {
                    OFFSET 26.5688 1.52588e-005 0
                    CHANNELS 3 Zrotation Xrotation Yrotation
                    End Site
                    {
                      OFFSET 0 0 0
                    }
                  }
                }
              }
            }
            JOINT LeftShoulder
            {
              OFFSET 2.38034 -1.29275 -3.7523
              CHANNELS 3 Zrotation Xrotation Yrotation
              JOINT LeftArm
              {
                OFFSET 16.3182 6.10352e-005 0
                CHANNELS 3 Zrotation Xrotation Yrotation
                JOINT LeftForeArm
                {
                  OFFSET 27.0901 0 0
                  CHANNELS 3 Zrotation Xrotation Yrotation
                  JOINT LeftHand
                  {
                    OFFSET 24.5451 1.52588e-005 0
                    CHANNELS 3 Zrotation Xrotation Yrotation
                    End Site
                    {
                      OFFSET 0 0 0
                    }
                  }
                }
              }
            }
            JOINT Neck
            {
              OFFSET 5.0226 -0.0266342 0
              CHANNELS 3 Zrotation Xrotation Yrotation
              JOINT Head
              {
                OFFSET 6.69363 2.86102e-005 0
                CHANNELS 3 Zrotation Xrotation Yrotation
                End Site
                {
                  OFFSET 0 0 0
                }
              }
            }
          }
        }
      }
    }
  }
}
MOTION
Frames:	6
Frame Time:	0.0416667
-313.298 82.5387 -277.934 -91.2828 36.8695 -92.246 -167.259 16.6744 102.608 -65.6682 6.86901 -1.9635 47.1402 -9.37052 -12.21 140.464 -39.4158 -23.8204 -178.415 29.9572 75.9343 56.4609 75.599 -150.784 -29.9496 17.7738 43.6195 -108.649 44.0209 4.19911 -14.1274 7.03903 -102.057 9.24273 -33.4957 -21.6381 -2.10943 -34.3945 -20.0513 -25.5367 -25.7172 -30.6389 -5.52402 -25.7172 -30.6389 137.831 11.6884 47.8112 31.321 13.5111 142.405 1.38439 -32.7929 -122.093 129.271 44.9218 16.7839 -49.7226 23.6271 -114.47 49.5081 -13.9071 100.443 -37.7713 -64.8948 -97.2044 3.98256 -3.55533 -61.537 22.1106 -37.384 -21.6343 0.995719 -32.0593 -51.1984 
-313.701 82.4062 -278.39 -91.0317 36.8089 -91.9623 -167.061 16.7365 103.278 -65.6399 6.70089 -1.74201 46.6093 -9.49913 -12.7762 140.074 -40.7664 -25.257 -178.253 30.6935 76.2719 56.7514 75.7209 -150.796 -29.9185 17.3898 43.5638 -109.034 42.5707 4.82685 -14.1249 7.07709 -102.065 9.15154 -33.4871 -21.6894 -2.20145 -34.3872 -20.1034 -25.6183 -25.6964 -30.6815 -5.60567 -25.6965 -30.6815 137.097 12.3155 48.4663 31.0293 12.375 142.593 0.754256 -32.9066 -122.672 129.025 44.3835 16.6243 -49.1594 23.4309 -114.631 48.8022 -14.3415 100.552 -39.9306 -65.1269 -99.4203 4.11502 -3.59764 -61.1276 21.7945 -37.5254 -21.7453 1.11415 -32.2503 -50.9667 
-314.837 82.0093 -279.676 -90.3121 36.6349 -91.1442 -166.505 16.9397 105.189 -65.5285 6.37062 -1.11768 45.1374 -9.79792 -14.2583 138.74 -44.2575 -29.2636 -177.81 32.7776 77.208 57.4632 76.1835 -150.634 -29.7574 16.1816 43.4707 -109.993 37.8585 6.65393 -14.1184 7.18694 -102.089 8.88736 -33.4654 -21.8389 -2.46903 -34.3716 -20.2555 -25.8539 -25.6374 -30.8057 -5.84124 -25.6374 -30.8057 134.877 14.1297 50.5073 30.0624 8.71786 143.049 -0.974282 -33.5062 -124.305 128.25 42.8763 16.1992 -47.6172 22.8816 -115.067 46.9023 -15.5397 100.804 -46.0003 -65.5019 -105.71 4.5297 -3.72982 -59.931 20.8864 -37.9276 -22.0709 1.44298 -32.7898 -50.3111 
-316.579 81.3271 -281.637 -89.1967 36.3645 -89.7841 -165.667 17.363 108.229 -65.3112 6.34416 -0.156471 42.9982 -10.0896 -16.1712 136.201 -48.7487 -35.2157 -177.179 35.9542 78.6184 57.926 77.3616 -149.46 -29.1846 13.8682 43.5578 -110.878 28.3019 9.6799 -14.2449 7.76478 -102.347 7.47449 -33.7643 -22.9527 -3.89317 -34.7175 -21.3616 -27.1077 -25.6328 -31.8892 -7.09508 -25.6328 -31.8892 118.89 20.9078 60.2551 35.8641 9.55567 138.606 -4.16237 -35.4161 -126.869 126.784 40.6588 15.6748 -54.6826 27.0506 -112.681 48.2093 -11.331 99.4347 -23.3966 -66.2766 -91.9476 5.39023 -3.98962 -57.6814 20.4995 -36.9025 -23.4135 1.8597 -31.8967 -49.1062 
-318.789 80.3205 -284.103 -87.8192 36.0101 -87.7158 -164.685 18.1423 112.42 -65.0758 7.26889 1.08991 40.587 -10.2393 -17.9594 132.426 -53.1791 -42.4214 -176.527 39.871 80.4745 54.6412 80.2303 -143.451 -27.3885 9.79493 44.2697 -109.704 9.95895 14.455 -12.0205 2.91974 -98.2647 20.2221 -27.8937 -10.8538 8.84362 -28.3401 -9.52701 -15.2458 -23.34 -19.027 4.76689 -23.34 -19.027 -22.837 -74.5572 145.498 -159.264 -8.18473 -20.6866 4.19914 -46.5095 -130.49 123.848 37.7363 15.3228 90.9803 -13.814 -87.3289 -42.1365 -11.5706 -13.7839 153.949 69.8177 -179.891 5.27739 -4.05881 -59.1569 11.2957 -63.0223 -6.89629 -3.02759 -59.3076 -62.5115 
-321.342 78.9492 -286.91 -86.2996 35.56 -84.8629 -163.798 19.3695 117.746 -64.9769 9.68046 2.52069 38.3018 -10.2705 -19.2091 127.373 -56.9828 -50.5623 -175.968 44.2523 82.656 -26.6685 84.3295 -58.0177 -21.9842 5.2126 47.6937 -97.44 -26.6041 26.5407 -12.0919 3.14772 -98.3578 19.6904 -28.0811 -11.1794 8.31412 -28.5414 -9.84307 -15.7685 -23.425 -19.3892 4.24416 -23.425 -19.3892 -12.1149 -68.9866 152.415 -157.574 -15.0122 -20.2987 0.241616 -47.002 -134.645 120.497 35.1121 15.1731 85.0213 -13.1348 -89.5568 -44.8065 -27.9182 -12.7078 164.934 51.8606 -179.964 8.10353 -5.11481 -55.5454 7.38125 -64.4985 -9.66404 -3.81416 -60.5851 -62.4105 
